<?xml version="1.0" encoding="utf-8"?>
<!-- Generator: Adobe Illustrator 26.0.0, SVG Export Plug-In . SVG Version: 6.00 Build 0)  -->
<svg version="1.1" id="Layer_1" xmlns="http://www.w3.org/2000/svg" xmlns:xlink="http://www.w3.org/1999/xlink" x="0px" y="0px"
	 viewBox="0 0 42 31.33" style="enable-background:new 0 0 42 31.33;" xml:space="preserve">
<style type="text/css">
	.st0{fill:none;stroke:#000000;stroke-width:2;stroke-linecap:round;stroke-linejoin:round;}
</style>
<path class="st0" d="M37.83,1.16H4.17c-0.81,0-1.59,0.32-2.16,0.9s-0.9,1.35-0.9,2.16v22.95c0,0.81,0.32,1.59,0.9,2.16
	c0.57,0.57,1.35,0.9,2.16,0.9h33.66c0.81,0,1.59-0.32,2.16-0.9c0.57-0.57,0.9-1.35,0.9-2.16V4.22c0-0.81-0.32-1.59-0.9-2.16
	C39.42,1.48,38.65,1.16,37.83,1.16z"/>
<path class="st0" d="M1.11,11.87h39.79"/>
<path class="st0" d="M28.65,22.58h4.59"/>
</svg>
