<?xml version="1.0" encoding="utf-8"?>
<!-- Generator: Adobe Illustrator 26.0.0, SVG Export Plug-In . SVG Version: 6.00 Build 0)  -->
<svg version="1.1" xmlns="http://www.w3.org/2000/svg" xmlns:xlink="http://www.w3.org/1999/xlink" x="0px" y="0px"
	 viewBox="0 0 42 42" style="enable-background:new 0 0 42 42;" xml:space="preserve">
<style type="text/css">
	.st0{fill:#A03724;}
	.st1{fill:#FFFFFF;}
	.st2{fill-rule:evenodd;clip-rule:evenodd;fill:#FFFFFF;}
</style>
<g id="Layer_2">
	<path class="st0" d="M32.17,42H10C4.48,42,0,37.52,0,32V10C0,4.48,4.48,0,10,0h22.17c5.52,0,10,4.48,10,10v22
		C42.17,37.52,37.69,42,32.17,42z"/>
</g>
<g id="Layer_1">
	<g>
		<path class="st1" d="M4.89,15.23h1.98v11.69H4.89V15.23z"/>
		<path class="st1" d="M18.73,23.69l1.27,1.29c-1.21,1.39-2.71,2.08-4.49,2.08c-1.77,0-3.24-0.57-4.42-1.7
			c-1.16-1.15-1.75-2.59-1.75-4.33c0-1.75,0.6-3.2,1.79-4.35c1.2-1.16,2.7-1.75,4.52-1.75c1.79,0,3.29,0.67,4.52,2.01l-1.24,1.36
			c-0.56-0.54-1.08-0.92-1.58-1.12c-0.49-0.21-1.08-0.31-1.75-0.31c-1.2,0-2.2,0.38-3.01,1.15c-0.8,0.77-1.2,1.74-1.2,2.92
			c0,1.16,0.4,2.15,1.2,2.97c0.8,0.81,1.75,1.22,2.85,1.22c0.67,0,1.24-0.11,1.72-0.33C17.64,24.57,18.17,24.2,18.73,23.69z"/>
		<path class="st1" d="M28.76,18.43l-1.47,1.51h7.88v-1.51H28.76z"/>
		<path class="st1" d="M26.22,21.17l-1.47,1.51h7.88v-1.51H26.22z"/>
		<path class="st2" d="M27.21,15.14h10.08v1.85h-9.31l-6.68,6.68l-1.31-1.31L27.21,15.14z"/>
	</g>
</g>
</svg>
