<?xml version="1.0" encoding="utf-8"?>
<!-- Generator: Adobe Illustrator 26.0.0, SVG Export Plug-In . SVG Version: 6.00 Build 0)  -->
<svg version="1.1" id="Layer_1" xmlns="http://www.w3.org/2000/svg" xmlns:xlink="http://www.w3.org/1999/xlink" x="0px" y="0px"
	 viewBox="0 0 1208 121" style="enable-background:new 0 0 1208 121;" xml:space="preserve">
<style type="text/css">
	.st0{fill:#1E1E1E;}
	.st1{fill-rule:evenodd;clip-rule:evenodd;}
</style>
<path class="st0" d="M0,2.8h19.7v115.9H0V2.8z"/>
<path class="st0" d="M137.1,86.7l12.6,12.8c-12,13.7-26.8,20.6-44.5,20.6c-17.5,0-32.1-5.6-43.8-16.8C49.8,91.9,44,77.6,44,60.4
	C44,43,50,28.7,61.8,17.3C73.6,5.8,88.6,0,106.6,0c17.7,0,32.6,6.6,44.8,19.9L139,33.4c-5.5-5.4-10.7-9.1-15.6-11.1
	c-4.9-2.1-10.7-3.1-17.3-3.1c-11.8,0-21.8,3.8-29.8,11.4c-7.9,7.6-11.8,17.2-11.8,28.9c0,11.5,3.9,21.3,11.8,29.4
	c7.9,8.1,17.3,12.1,28.2,12.1c6.6,0,12.3-1.1,17.1-3.3C126.4,95.4,131.6,91.8,137.1,86.7z"/>
<path class="st0" d="M236.5,34.6l-14.6,14.9h78V34.6H236.5z"/>
<path class="st0" d="M211.4,61.8l-14.6,14.9h78V61.8H211.4z"/>
<path class="st1" d="M221.2,2H321v18.3h-92.2l-66.2,66.2l-13-13L221.2,2z"/>
<path d="M367.5,26.4h12.8V102h-12.8V26.4z"/>
<path d="M458,26.4h12.7V102h-13.8L414,46.8V102h-12.8V26.4H414L458,82.8V26.4z"/>
<path d="M520.3,38v64h-12.8V38h-22.9V26.4h58.6V38H520.3z"/>
<path d="M610.4,26.4v11.9H570v20.1h36.2v11.3H570v20.3h41.6V102h-54.4V26.4H610.4z"/>
<path d="M672,74.5l19.8,27.5h-16.2l-18.1-25.5h-16.7V102H628V26.4h28.1c11.4,0,19.6,2,24.6,5.9c5.1,3.8,7.6,10.1,7.6,18.7
	C688.3,63.4,682.9,71.3,672,74.5z M656.6,65c7.1,0,12-1.1,14.7-3.2c2.7-2.2,4-5.8,4-11c0-4.9-1.3-8.3-4-10.1
	c-2.7-1.9-7.5-2.8-14.4-2.8h-16.1V65H656.6z"/>
<path d="M762.6,81.1l8.2,8.4c-7.8,9-17.5,13.5-29.1,13.5c-11.4,0-21-3.7-28.6-11c-7.5-7.4-11.3-16.8-11.3-28
	c0-11.3,3.9-20.7,11.6-28.1c7.7-7.5,17.5-11.3,29.2-11.3c11.5,0,21.3,4.3,29.2,13l-8,8.8c-3.6-3.5-7-5.9-10.2-7.3
	c-3.2-1.3-7-2-11.3-2c-7.7,0-14.2,2.5-19.5,7.4c-5.2,4.9-7.7,11.2-7.7,18.9c0,7.5,2.6,13.9,7.7,19.2c5.2,5.3,11.3,7.9,18.4,7.9
	c4.3,0,8-0.7,11.1-2.2C755.6,86.8,759,84.4,762.6,81.1z"/>
<path d="M821.4,36.1c-7.5,0-13.9,2.7-19,8c-5.2,5.4-7.7,11.9-7.7,19.5c0,7.6,2.6,14.1,7.7,19.5c5.2,5.3,11.5,7.9,19,7.9
	s13.9-2.6,19-7.9c5.2-5.4,7.7-11.9,7.7-19.5c0-7.6-2.6-14.1-7.7-19.5C835.3,38.8,828.9,36.1,821.4,36.1z M821.4,102.8
	c-11.3,0-20.8-3.7-28.5-11.1c-7.6-7.5-11.4-16.9-11.4-28c0-11.1,3.8-20.4,11.4-27.8c7.6-7.5,17.1-11.3,28.5-11.3s20.8,3.8,28.5,11.3
	c7.6,7.4,11.4,16.7,11.4,27.8c0,11.1-3.9,20.4-11.6,27.8C842,99,832.5,102.8,821.4,102.8z"/>
<path d="M908.5,90.7c5.9,0,10.5-2,13.9-6c3.5-4,5.3-9.5,5.3-16.4V26.4h12.8v42.4c0,10.7-2.9,19.1-8.8,25.1s-13.6,9-23.2,9
	c-9.6,0-17.3-3-23.2-9c-5.9-6-8.8-14.3-8.8-25.1V26.4h12.7v41.9c0,7,1.8,12.5,5.3,16.4C897.8,88.7,902.5,90.7,908.5,90.7z"/>
<path d="M1004.7,74.5l19.8,27.5h-16.2l-18.1-25.5h-16.7V102h-12.8V26.4h28.1c11.4,0,19.6,2,24.6,5.9c5,3.8,7.6,10.1,7.6,18.7
	C1020.9,63.4,1015.5,71.3,1004.7,74.5z M989.2,65c7.1,0,12-1.1,14.7-3.2c2.7-2.2,4-5.8,4-11c0-4.9-1.3-8.3-4-10.1
	c-2.7-1.9-7.5-2.8-14.4-2.8h-16.1V65H989.2z"/>
<path d="M1039.4,26.4h12.8V102h-12.8V26.4z"/>
<path d="M1126.3,26.4v11.9H1086v20.1h36.2v11.3H1086v20.3h41.6V102h-54.4V26.4H1126.3z"/>
<path d="M1187.9,74.5l19.8,27.5h-16.2l-18.1-25.5h-16.7V102h-12.8V26.4h28.2c11.4,0,19.6,2,24.6,5.9c5.1,3.8,7.6,10.1,7.6,18.7
	C1204.2,63.4,1198.8,71.3,1187.9,74.5z M1172.5,65c7.1,0,12-1.1,14.7-3.2c2.7-2.2,4-5.8,4-11c0-4.9-1.3-8.3-4-10.1
	c-2.7-1.9-7.5-2.8-14.4-2.8h-16.1V65H1172.5z"/>
</svg>
