<?xml version="1.0" encoding="utf-8"?>
<!-- Generator: Adobe Illustrator 26.0.0, SVG Export Plug-In . SVG Version: 6.00 Build 0)  -->
<svg version="1.1" id="Layer_1" xmlns="http://www.w3.org/2000/svg" xmlns:xlink="http://www.w3.org/1999/xlink" x="0px" y="0px"
	 viewBox="0 0 188 188" style="enable-background:new 0 0 188 188;" xml:space="preserve">
<style type="text/css">
	.st0{fill:#FFFFFF;stroke:#E8862C;stroke-width:2;}
	.st1{fill:#FFFFFF;}
	.st2{fill:none;stroke:#E58130;}
</style>
<path class="st0" d="M43.24,18.27v3.28h-0.51l-1.85-1.09v-1.52l-0.93-0.67l-2.78,0.25l1.77,1.09h-2.1l-0.59,0.59h-0.84l-1.68,4.38
	l-1.94,0.17v3.7l-2.95,3.03v0.59l-1.18,0.76l-7.24-6.9l0.25,6.57l-5.98,0.51l-0.34,4.38l0.34,4.46l0.76,6.99l0.17,6.99h-1.26
	l0.59,3.62l-1.43,1.6l-1.77-0.84v1.26L6.19,63.4v2.19L4.34,67.1l0.67,1.35v1.35l-1.26,1.52l-0.17,1.85L4,74.26l1.01,0.34l-1.77,1.77
	l-1.01,2.1L3.58,82l1.77,0.76H6.7l1.09-1.52l-0.51-0.93l-0.25-0.84l0.59-0.67H9.9l0.93,1.52l0.67-0.34l1.26,0.59l2.19,0.59h1.52
	l0.34-1.68l5.3,1.09l1.09,1.01l1.68-1.01l1.26-1.09v-1.52l3.7-0.25l1.01,1.01l0.25,2.86h0.34v1.77l2.78,4.71l-11.28,7.58l6.65,2.1
	l-12.8,3.28l-1.09,1.18l-0.34,2.1l0.34,12.54l-1.77,5.39l4.97,3.45l-4.71,3.96l2.61,2.44l-4.04,3.54l-1.94-1.52l-1.85,0.93
	l-1.6-2.95l-3.03,1.52v1.18l3.79,4.8l-6.57,6.15l1.52,1.09l3.7-4.71l2.02,0.25l1.85,2.27l-1.43,1.1l1.18,1.09l-3.62,2.27l2.86,3.12
	l2.69-0.25l2.61-5.56l-1.35-0.67l1.35-1.43l-1.68-1.43l2.27-2.61l1.26,1.1l2.61-2.78l1.77,1.94l2.44-1.68l7.58,1.43l17.6-26.1
	l9.18,4.13l-2.78,9.68l-2.44-1.52l-2.69,4.8l-0.59,9.51l-2.02,2.02v2.02l-0.76,0.84l-0.51,2.53l2.19,1.94l-1.18,2.69l1.18,0.76
	l0.59,2.86h1.35l0.67,1.26l-1.77,4.97l-0.25,2.19l2.27,0.42l0.84-0.76l1.52,0.34l-0.76,2.02l1.52,4.29l1.18,0.25l1.77,8.84
	l-1.52,3.37l4.88,2.86h1.94l5.64-1.6l0.51-0.84h-1.94l-0.34-0.42h-1.09l-1.6-1.1l-0.76-2.78h0.76l0.51,1.68l9.09-0.84l0.17,1.09
	h1.43l0.51,3.03h1.35l0.25-3.79l-4.13-7.49l2.02-0.59L74.13,172l0.25-0.42l-2.02-2.61l2.61-10.02l11.62,0.93l-0.93,6.48h1.09
	l-0.34,2.95h7.49l-0.17,4.63l-2.36,3.03l0.17,1.68l1.01,1.26l1.6,0.76h1.43l0.67,0.17v0.67l-1.77,2.19l0.67,0.84l0.84,0.5l1.35-0.25
	l1.43-0.93l4.13,0.17l1.18-0.84h1.01l2.1-2.19l5.81-1.68l2.02-1.85l0.42,0.17v0.42l3.28-1.1l-1.52-1.77l3.11-1.35v3.11l3.62-1.52
	l-0.25-4.63l3.79-1.85l-0.42,1.68l4.55-0.67v1.77l1.43-1.52l4.63-0.84l-1.35-1.18v-2.78l3.79-1.35l3.2-0.17l-0.67-0.93l0.42-1.01
	l-0.17-0.93l-0.25-0.67l0.67-0.59l0.93,0.25l0.08,1.35l0.67,0.59h1.35l0.84-0.59l0.25-0.67l0.59-0.76l0.25-0.67l0.84-0.84l0.93,0.17
	l1.26-0.34l0.17-0.84l-0.59-0.42l0.59-0.84l0.34-0.76l1.68-1.68l1.09-0.51l1.1-1.01l1.77-1.52h0.76l1.52,0.42h0.76l0.84-1.35
	l0.17-1.18l0.42-0.17l0.25,0.84l0.93,0.5h0.93l1.01-0.93l3.54,0.17l0.84-0.84v-0.93l-0.34-0.76v-0.67l-0.84-0.67l-0.42-0.76
	l0.42-0.59h0.84l1.6,0.76l1.26-0.17l1.85-1.68h1.09l1.35-0.76l0.76,0.59h1.26l1.18-0.42h0.93l2.19-0.76h2.61l0.84,0.5h0.42v-1.26
	l-0.76-0.59h-0.84l-1.35,0.59h-0.93l-1.85-0.84h-0.67l-1.01-1.26l-0.34,0.34l-0.59,0.5h-1.09l-0.93-1.52l-0.42-1.77l-0.59-0.17
	l-0.84,1.26l-0.17,0.84l0.34,0.5l-0.34,0.34h-1.09h-0.93l-1.18,0.25l-0.67-0.25l-0.5-0.84l-0.67,0.5l-0.42,0.84l-0.76,0.42
	l0.42,0.59v0.93l-0.42,0.42l-0.5,0.59l-0.34,0.93l-0.25,0.42h-0.59l-0.25-0.42l-0.34-0.17l-0.17,0.34l-0.17,1.01l-0.93,0.76
	l-0.84-0.25l-0.34-1.26l-0.93,1.52l-0.67,0.17l-0.5-0.76l-0.51-0.17l-0.93,0.51l-0.67,0.25l-0.67-0.42h-1.09l-0.84,0.84l-0.34,1.1
	l-0.25,3.37l-1.35,1.26l-1.35,0.51v-1.43l-13.64,0.67l-1.85,2.27l-3.45-1.68l-0.42-3.2l-1.85-2.44v-5.47h1.18l0.67-6.15l3.7,1.35
	l-0.17-8.76h-1.01l-1.6,0.59l-1.77,0.17l-0.51-1.35l1.77-1.77l-1.01-3.11l-2.61-2.02v-0.76h2.86v-3.79l8.5,0.76l-0.17-3.62
	l-4.8-0.34l-0.17-5.22l1.52-1.77l0.67-1.18h1.01l3.96-3.62h4.04l1.43-1.43h2.36v-1.26l4.55,2.19l2.53,0.17l3.87-3.45h3.11l1.77-1.35
	h1.43l3.7,1.6h2.78l3.28-1.94l2.02,0.17v-2.02l-0.51-1.43l1.35-2.86l0.84,0.17l0.25-4.97l-1.1-1.6l0.67-2.1l2.69-2.19l-0.42-6.48
	l-1.68-3.11l0.42-1.68v-0.93l-1.6-6.06l-4.04-0.34l-4.38-3.12v-1.85l-0.51-0.34l0.17-7.83l-1.01-1.6l-5.89-1.09L162.45,41h-0.51
	l-1.01-0.34l0.17-2.02l-1.01-1.94l-1.68-1.94v-1.43l0.84-2.02l1.85-1.43v-2.27l2.27-0.42l0.42,0.93l1.94-0.17l-0.17,1.26l0.84,0.93
	l4.29-3.7v-1.01l2.02-1.18l0.17-2.53l6.74-0.84l1.52-1.35l2.11-4.29L168,5.73h-1.18l-2.19,1.77l-2.86-3.03l-9.93,2.61l-7.66-2.86
	l-4.46-2.69l-8.67,0.76l-0.08,1.18l-2.36,2.02l-1.43-1.18l0.67-1.18l-1.85-0.25l-0.17,1.01l-1.85-0.42l-1.43,0.59v1.43l1.18,1.85
	l3.62,2.78l-1.18,0.34l0.08,1.52l-1.35,0.84l-1.18-2.69h-0.93l-0.93,1.01l-2.53,1.09v2.36l0.93,1.18l-3.37,1.85l1.01,1.6l-2.44,2.1
	l0.17,2.61l-1.09-2.27l-2.19-1.26l-0.84,1.77l-1.01,0.67l-2.78,0.17l-3.79,4.04l1.6,1.43l-0.25,4.04l-0.93,0.84v2.69l-1.52,0.67
	v1.68l-1.26-1.09h-1.26l-1.26-1.09h2.69v-1.43l-3.28-0.25l0.08-0.76l2.44-2.27l-2.69-0.25l-0.17,0.67h-1.18l-0.17,0.59l-1.01-0.17
	l-0.34,1.43l-4.8-2.02l0.59-5.05l-1.26-1.68h-1.77l-1.85,1.18l-1.43,2.95l-1.35-0.08l-0.84,1.6l-2.61-1.18l1.01-2.1h-1.77l1.26-3.54
	l-0.67-1.01h-2.53v-1.35l-2.95-0.84l1.01-3.62l-1.35-1.18l0.17-0.76l-2.19-1.26l-0.25,1.26h-1.18l-0.25-0.51h-1.01l0.34,0.93
	l-1.6,1.52h-1.18v1.01l-1.01,0.93h-1.18l-0.76,1.52h-1.52l0.76-0.51v-1.18l0.93-0.25l1.52-3.79h1.26l0.84-0.59v-1.18l-0.51-0.59
	V8.51h-2.02l-0.67-1.09V6.49h0.42l0.67,0.93v-1.6l-1.09-0.59h-1.77l-1.09-1.68l-1.68-0.25l-1.18,0.59h-1.43l-1.77-1.6h-3.03
	l-0.67,3.96l-9.26,2.44l7.83,10.27h-1.09v1.26h-3.7v-1.94H43.24z"/>
<path class="st1" d="M59.23,28.21h5.22l2.44,0.42l12.04,5.3l8.25,3.79l13.05,10.27v2.02l-1.52,0.96l4.21-0.12l-1.6,3.87l2.95,1.18
	l7.74,6.99l11.53-0.34l9.43-1.26v2.36l6.73-0.84l3.03,1.43l3.79,0.76l5.47,4.8v2.61l1.26,0.93l0.42,0.93l1.94,1.09l1.18,2.27v1.26
	l-19.36-1.52l-0.93,3.62l-3.79-1.35l-5.3,0.08h-5.47l-4.13-1.94l-1.85,5.56l-1.6,10.94l-3.96,7.75v3.11l-11.11-0.5l1.26,1.26
	l0.03,1.1l0.56,18.35H99.3l1.38,5.05L94,132.09l-1.85-0.24l-10.94-1.44l-3.45,16.67l-5.05-1.1l-12.46-5.22l2.61-5.05v-4.8l1.26,0.5
	l3.37-9.09l-9.51-4.04v-4.71l4.55-11.83l4.55-11.83v-1.94L54.68,91.1l-4.55-4.63l-4.55-1.26v-1.18h0.76l-0.25-7.16l-3.87-0.93v-3.87
	l-1.01-0.25l0.17-5.14v-3.11h-3.96l-1.6-0.93h-3.2l-2.02-0.67l-0.93-1.77l-0.59,1.77l-1.94-0.51l-1.68-1.26l-1.77-2.61V57
	l-1.35-0.25v-1.94v-4.46l11.45-11.87l1.43,1.09h1.18v1.18l1.01,1.09h2.53l0.34-0.67l0.34,0.59h0.93l1.52,2.02l0.51-0.67l0.84,0.08
	l0.25-0.51h1.01l0.17,0.51h1.18v-0.51h1.18l0.08,0.51l1.77,0.08l2.19-1.68l0.93,0.51h1.18l2.95-3.96h1.52l2.27-1.18v0.84h0.51
	l0.53-0.93l-2.89-7.41V28.21z"/>
<path class="st2" d="M62.51,20.46v2.44l1.94,5.3 M64.45,28.21h-5.22v1.26l2.89,7.41 M64.45,28.21l2.44,0.42l12.04,5.3 M72.53,61.04
	v-0.93l-3.28-3.62l-0.76-6.74l-0.73-1.35 M72.53,61.04l0.25,1.01l-2.95-1.01l-1.26,0.51v1.35l0.42,4.8l-5.47,0.25l0.11,3.03
	 M72.53,61.04l-6.31-2.78l-2.53-1.77l-2.44-2.69l-3.37-2.44h-4.38l-2.27,1.43l-1.18-0.25v0.93 M72.53,61.04l9.34,2.49 M57.13,73
	l6.57-0.25l-0.06-1.77 M57.13,73l0.25,5.05l-1.94,0.67h-1.6l-7.75-1.85 M57.13,73l-0.25-5.64l-6.71-0.67 M41.38,66.68l-0.17,5.14
	l1.01,0.25v3.87l3.87,0.93 M41.38,66.68h5.39l3.11,1.43l0.28-1.43 M41.38,66.68v-3.11h-3.96l-1.6-0.93h-3.2l-2.02-0.67l-0.93-1.77
	l-0.59,1.77l-1.94-0.51l-1.68-1.26l-1.77-2.61V57l-1.35-0.25v-1.94 M50.05,53.46l2.36,1.85l-2.24,11.37 M50.05,53.46h-1.18
	l-1.6,1.18l-1.01-0.51l-14.99,0.17l-2.69,1.35h-1.43v-0.84h-4.8 M22.36,54.81v-4.46l11.45-11.87 M33.81,38.48l-3.62-2.61l-2.44-3.03
	 M33.81,38.48l1.43,1.09h1.18v1.18l1.01,1.09h2.53l0.34-0.67l0.34,0.59h0.93l1.52,2.02l0.51-0.67l0.84,0.08l0.25-0.51h1.01
	l0.17,0.51h1.18v-0.51h1.18l0.08,0.51l1.77,0.08l2.19-1.68l0.93,0.51h1.18l2.95-3.96h1.52l2.27-1.18v0.84h0.51l0.53-0.93
	 M46.1,76.87l0.25,7.16h-0.76 M45.59,84.02v1.18l4.55,1.26 M45.59,84.02l-2.53,2.19l0.17-2.19l-11.7-2.44 M50.14,86.47l-0.76,5.14
	l-2.95,0.08l-0.17,6.57l-0.59,0.34l-3.11,7.91l7.58-0.08l2.61,2.02l-3.96,5.72 M50.14,86.47l4.55,4.63l12.38-3.12 M176.34,142.03
	l-1.6-1.85l-1.43-0.25l-0.76,0.5l-0.93,2.27l-0.93,0.34l-1.6-0.76h-1.26l-0.17,0.42l0.5,0.34v0.84 M169.1,146.66l-2.53-0.17
	l-0.84,0.34l-0.84,0.93h-0.93l-1.85-1.26l-1.52-0.34l-0.93,0.76l-0.08,1.94l-0.5,0.42l-0.42-0.08l-0.84-0.76h-0.67l-1.43,1.6
	 M153.02,151.8l-0.17,0.76h-0.76l-0.5,0.42l0.08,0.84l0.17,1.6 M150.91,157.01l-0.67,0.5h-0.76l-1.18-0.67l-0.42,0.42v0.93
	l0.17,0.59l0.08,1.01 M142.66,163.08l-0.67,0.25l-1.43-0.25l-2.02-1.01l-1.01-0.08l-2.69,2.53l-3.54-1.18l-2.02,0.08l-2.95,1.94
	h-1.43l-1.18-0.76l-0.93,0.08l-1.01,0.84l-0.59,1.01v1.01h-2.44l-1.09,0.42l-0.84,1.01l-1.18,3.2l-0.42,0.34l-1.26-0.42h-0.93
	l-0.67,0.51l-1.52,2.02l-0.76,0.42l-0.84-0.08l-0.34-0.93l-0.59-0.08l-1.43,0.67h-1.52l-2.53,0.93l-1.35-0.08l-1.52,0.5h-2.02
	l-1.94-0.67l-1.26-0.17l-1.18,0.17l-1.52,0.84 M93.92,169.31l0.84-3.7l0.17-8.5l8.84-1.68l-0.34-3.11l-0.17-4.88l-1.35-1.77
	l-0.34-7.24 M101.58,138.41l4.63-1.68l3.11,1.43l4.13-0.42v-2.44l12.54-2.44l-5.05-7.32l6.99,0.25l2.44,2.36l2.02-1.85
	 M101.58,138.41h-0.59l-0.67-4.71h1.26l-0.9-3.28 M138.2,104.73h-2.36l-0.84,1.1l-1.94,0.76l-9.93-0.25l-12.71-1.18 M110.42,105.15
	l-11.11-0.5 M110.42,105.15v-3.11l3.96-7.75l1.6-10.94 M99.3,104.65l1.26,1.26l0.03,1.1 M99.3,104.65l-1.52-8.92l-1.85-4.29
	l-0.67-4.38 M67.48,122.33l-9.51-4.04v-4.71l4.55-11.83 M67.48,122.33l-3.37,9.09l-1.26-0.5v4.8l-2.61,5.05l12.46,5.22l5.05,1.1
	 M67.48,122.33l8.42,3.54l6.23,0.76 M67.48,122.33l6.31-16 M77.75,147.08l-2.69,11.87 M77.75,147.08l3.45-16.67 M81.2,130.41
	l0.93-3.79 M81.2,130.41l10.94,1.44 M100.68,130.41l-1.38-5.05h1.85l-0.56-18.35 M100.68,130.41L94,132.09l-1.85-0.24 M82.13,126.62
	l3.81-16.49 M62.12,36.88l1.57,4.04l4.07,7.49 M67.06,87.98v1.94l-4.55,11.83 M67.06,87.98h1.77 M23.54,138.75l-6.74-6.57
	 M73.8,106.33l-11.28-4.59 M73.8,106.33l6.99-18.35 M73.8,106.33L86,109.87l-0.06,0.26 M80.78,87.98h-7.41 M80.78,87.98h6.06
	 M73.37,87.98v1.26h-4.55v-1.26 M73.37,87.98h-0.93 M68.83,87.98h3.62 M72.45,87.98v-2.86h-3.11l0.67-1.94v-8.92l-0.84-0.17
	L69,70.64l-5.37,0.34 M86.84,87.98l7.49-3.28 M86.84,87.98l2.44,22.15 M94.34,84.7l0.93,2.36 M94.34,84.7l-3.11-11.15 M88.95,65.42
	l-7.07-1.89 M88.95,65.42v-2.19l-0.59,0.17l1.6-2.53l0.25-2.69l1.77-1.35h1.43l2.95-3.2l0.42-1.43l1.94-1.23 M88.95,65.42l2.27,8.13
	 M78.93,33.93v1.09h-0.51v1.52h0.34v9.43l-0.51,0.42 M78.93,33.93l8.25,3.79l13.05,10.27 M78.26,46.39l-4.21-0.17l-6.29,2.19
	 M78.26,46.39l0.67,0.76V49l0.93,0.67h1.35l-0.17,6.15h1.43l-0.59,7.71 M100.23,47.99v-3.28l1.77-2.53l1.6-1.09v-1.94l-0.76-0.76
	 M100.23,47.99v2.02l-1.52,0.96 M85.94,110.13h3.34 M89.29,110.13l2.86,21.72 M89.29,110.13h4.21l4.71-3.12h2.39 M95.26,87.05
	l7.49-1.18h9.18l4.04-2.53 M115.97,83.35l1.85-5.56 M117.83,77.79l4.13,1.94h5.47l5.3-0.08l3.79,1.35l0.93-3.62l19.36,1.52
	 M117.83,77.79l0.67-4.13l-1.35-7.07l-4.13-2.53 M156.8,78.89l3.62,1.6l1.94,2.27l0.25,1.52l2.44,1.6h4.88l1.01,1.09h1.01l2.27,2.78
	l1.68,0.25l0.93,0.84l3.37,0.34 M156.8,78.89v-1.26l-1.18-2.27l-1.94-1.09l-0.42-0.93l-1.26-0.93V69.8l-5.47-4.8l-3.79-0.76
	l-3.03-1.43l-6.73,0.84v-2.36l-9.43,1.26l-11.53,0.34 M112.02,62.89l1.01,1.18 M112.02,62.89l-7.74-6.99l-2.95-1.18l1.6-3.87
	 M113.03,64.07l-4.46,7.91l-2.36-1.77l-4.88,0.42l-3.28,1.85h-1.18v-0.84l-5.64,1.9 M102.92,50.85l-4.21,0.12 M102.92,50.85
	l30.64-12.96l3.28-3.96l4.55-2.14 M161.18,27.53h-2.86l-4.38-0.67l-1.85,1.68l-1.43-0.25l-2.61,2.02l-4.04,0.25l-2.61,1.23
	 M141.4,31.79l-1.1-1.23l-9.18,0.59l-1.6-1.43l-1.52-0.84l-2.78-2.78l-2.44-1.52h-2.78L119.59,24h-1.1l-0.59-1.09l-1.43,0.25
	l-0.84,0.67"/>
</svg>
