<?xml version="1.0" encoding="utf-8"?>
<!-- Generator: Adobe Illustrator 26.0.0, SVG Export Plug-In . SVG Version: 6.00 Build 0)  -->
<svg version="1.1" id="Layer_1" xmlns="http://www.w3.org/2000/svg" xmlns:xlink="http://www.w3.org/1999/xlink" x="0px" y="0px"
	 viewBox="0 0 56.78 68.77" style="enable-background:new 0 0 56.78 68.77;" xml:space="preserve">
<style type="text/css">
	.st0{fill:none;stroke:#D15E49;stroke-width:3.4286;stroke-linecap:round;stroke-linejoin:round;}
</style>
<path class="st0" d="M-70.57-194h-14.86c-1.31,0-2.57,0.52-3.5,1.44c-0.93,0.92-1.45,2.18-1.45,3.48v2.46
	c0,1.31,0.52,2.56,1.45,3.48c0.93,0.92,2.19,1.44,3.5,1.44h14.86c1.31,0,2.57-0.52,3.5-1.44c0.93-0.92,1.45-2.18,1.45-3.48v-2.46
	c0-1.31-0.52-2.56-1.45-3.48C-68-193.48-69.26-194-70.57-194z"/>
<path class="st0" d="M-64.38-189.08h7.43c1.31,0,2.57,0.52,3.5,1.44c0.93,0.92,1.45,2.18,1.45,3.48v49.23
	c0,1.31-0.52,2.56-1.45,3.48c-0.93,0.92-2.19,1.44-3.5,1.44h-42.1c-1.31,0-2.57-0.52-3.5-1.44c-0.93-0.92-1.45-2.18-1.45-3.48
	v-49.23c0-1.31,0.52-2.56,1.45-3.48c0.93-0.92,2.19-1.44,3.5-1.44h7.43"/>
<path class="st0" d="M-87.9-152.15l7.43,4.92l14.86-19.69"/>
<path class="st0" d="M36,1.84H20.87c-1.34,0-2.62,0.53-3.57,1.47c-0.95,0.94-1.48,2.22-1.48,3.55v2.51c0,1.33,0.53,2.6,1.48,3.55
	c0.95,0.94,2.23,1.47,3.57,1.47H36c1.34,0,2.62-0.53,3.57-1.47c0.95-0.94,1.48-2.22,1.48-3.55V6.86c0-1.33-0.53-2.6-1.48-3.55
	C38.62,2.37,37.33,1.84,36,1.84z"/>
<path class="st0" d="M42.3,6.86h7.56c1.34,0,2.62,0.53,3.57,1.47c0.95,0.94,1.48,2.22,1.48,3.55V62c0,1.33-0.53,2.6-1.48,3.55
	c-0.95,0.94-2.23,1.47-3.57,1.47H7c-1.34,0-2.62-0.53-3.57-1.47C2.49,64.61,1.96,63.33,1.96,62V11.87c0-1.33,0.53-2.6,1.48-3.55
	C4.38,7.38,5.66,6.86,7,6.86h7.56"/>
<path class="st0" d="M18.35,44.46l7.56,5.01l15.13-20.05"/>
</svg>
