<?xml version="1.0" encoding="utf-8"?>
<!-- Generator: Adobe Illustrator 26.0.0, SVG Export Plug-In . SVG Version: 6.00 Build 0)  -->
<svg version="1.1" id="Layer_1" xmlns="http://www.w3.org/2000/svg" xmlns:xlink="http://www.w3.org/1999/xlink" x="0px" y="0px"
	 viewBox="0 0 30 28.79" style="enable-background:new 0 0 30 28.79;" xml:space="preserve">
<style type="text/css">
	.st0{fill:none;stroke:#D15E49;stroke-width:2;stroke-linecap:round;stroke-linejoin:round;}
</style>
<g>
	<path class="st0" d="M26.74,1.13H3.26c-0.57,0-1.11,0.27-1.51,0.74C1.35,2.35,1.13,3,1.13,3.67v21.6c0,0.67,0.22,1.32,0.63,1.8
		c0.4,0.48,0.94,0.74,1.51,0.74h23.48c0.57,0,1.11-0.27,1.51-0.74c0.4-0.48,0.63-1.12,0.63-1.8V3.67c0-0.67-0.22-1.32-0.63-1.8
		C27.85,1.4,27.31,1.13,26.74,1.13z"/>
	<path class="st0" d="M1.13,4.31l12.51,8.95c0.38,0.27,0.87,0.41,1.37,0.41s0.98-0.14,1.37-0.41l12.51-8.95"/>
</g>
</svg>
