<?xml version="1.0" encoding="utf-8"?>
<!-- Generator: Adobe Illustrator 26.0.0, SVG Export Plug-In . SVG Version: 6.00 Build 0)  -->
<svg version="1.1" id="Layer_1" xmlns="http://www.w3.org/2000/svg" xmlns:xlink="http://www.w3.org/1999/xlink" x="0px" y="0px"
	 viewBox="0 0 29.93 32" style="enable-background:new 0 0 29.93 32;" xml:space="preserve">
<style type="text/css">
	.st0{fill:none;stroke:#000000;stroke-width:3;stroke-linecap:round;stroke-linejoin:round;}
</style>
<path class="st0" d="M1.43,28.41V5.52c0-0.55,0.22-1.08,0.61-1.47s0.92-0.61,1.47-0.61H26.4c0.55,0,1.08,0.22,1.47,0.61
	c0.39,0.39,0.61,0.92,0.61,1.47v22.89c0,0.55-0.22,1.08-0.61,1.47c-0.39,0.39-0.92,0.61-1.47,0.61h-6.24v-9.86h1.48
	c0.34,0,0.66-0.13,0.9-0.37c0.24-0.24,0.37-0.56,0.37-0.9v-1.6c0-0.34-0.13-0.66-0.37-0.9c-0.24-0.24-0.56-0.37-0.9-0.37h-1.39
	v-1.96c0-1.75,0.79-1.75,1.58-1.75h1.02c0.17,0.01,0.33-0.02,0.49-0.09c0.15-0.06,0.29-0.16,0.41-0.29
	c0.12-0.12,0.22-0.25,0.28-0.41c0.06-0.15,0.1-0.32,0.09-0.49V9.97c0.01-0.17-0.02-0.34-0.08-0.5c-0.06-0.16-0.15-0.3-0.27-0.43
	c-0.12-0.12-0.26-0.22-0.41-0.29c-0.15-0.07-0.32-0.11-0.49-0.11h-2.39c-0.7-0.03-1.39,0.1-2.04,0.37s-1.22,0.67-1.7,1.19
	c-0.47,0.51-0.83,1.13-1.04,1.79c-0.21,0.67-0.28,1.37-0.2,2.06v2.43h-1.33c-0.17,0-0.34,0.03-0.49,0.09
	c-0.16,0.06-0.3,0.16-0.42,0.27c-0.12,0.12-0.22,0.26-0.28,0.41c-0.07,0.16-0.1,0.32-0.1,0.49v1.6c0,0.17,0.03,0.34,0.1,0.49
	c0.07,0.16,0.16,0.3,0.28,0.41c0.12,0.12,0.26,0.21,0.42,0.27c0.16,0.06,0.32,0.09,0.49,0.09h1.33v9.86H3.51
	c-0.55,0-1.08-0.22-1.47-0.61C1.65,29.49,1.43,28.96,1.43,28.41z"/>
</svg>
