<?xml version="1.0" encoding="utf-8"?>
<!-- Generator: Adobe Illustrator 26.0.0, SVG Export Plug-In . SVG Version: 6.00 Build 0)  -->
<svg version="1.1" id="Layer_2" xmlns="http://www.w3.org/2000/svg" xmlns:xlink="http://www.w3.org/1999/xlink" x="0px" y="0px"
	 viewBox="0 0 56.78 52.6" style="enable-background:new 0 0 56.78 52.6;" xml:space="preserve">
<style type="text/css">
	.st0{fill:none;stroke:#D15E49;stroke-width:3.4286;stroke-linecap:round;stroke-linejoin:round;}
</style>
<path class="st0" d="M5.98,18.13h44.85v28.5c0,1.08-0.43,2.12-1.19,2.88c-0.76,0.76-1.8,1.19-2.88,1.19h-36.7
	c-1.08,0-2.12-0.43-2.88-1.19c-0.76-0.76-1.19-1.8-1.19-2.88V18.13z"/>
<path class="st0" d="M54.91,14.06V5.91c0-1.08-0.43-2.12-1.19-2.88c-0.76-0.76-1.8-1.19-2.88-1.19H5.98c-1.08,0-2.12,0.43-2.88,1.19
	C2.33,3.8,1.9,4.83,1.9,5.91v8.14c0,1.08,0.43,2.12,1.19,2.88c0.76,0.76,1.8,1.19,2.88,1.19h44.85c1.08,0,2.12-0.43,2.88-1.19
	C54.48,16.17,54.91,15.14,54.91,14.06z"/>
<path class="st0" d="M22.29,30.35h12.23"/>
</svg>
