<?xml version="1.0" encoding="utf-8"?>
<!-- Generator: Adobe Illustrator 26.0.0, SVG Export Plug-In . SVG Version: 6.00 Build 0)  -->
<svg version="1.1" id="Layer_1" xmlns="http://www.w3.org/2000/svg" xmlns:xlink="http://www.w3.org/1999/xlink" x="0px" y="0px"
	 viewBox="0 0 42 42.16" style="enable-background:new 0 0 42 42.16;" xml:space="preserve">
<style type="text/css">
	.st0{fill:none;stroke:#000000;stroke-width:2;stroke-linecap:round;stroke-linejoin:round;}
</style>
<path class="st0" d="M21.03,34.9v6.13"/>
<path class="st0" d="M28.69,31.84v6.13"/>
<path class="st0" d="M13.37,31.84v6.13"/>
<path class="st0" d="M8.01,14.21c-0.2,0-0.4-0.08-0.54-0.22c-0.14-0.14-0.22-0.34-0.22-0.54s0.08-0.4,0.22-0.54
	c0.14-0.14,0.34-0.22,0.54-0.22"/>
<path class="st0" d="M8.01,14.21c0.2,0,0.4-0.08,0.54-0.22c0.14-0.14,0.22-0.34,0.22-0.54s-0.08-0.4-0.22-0.54
	c-0.14-0.14-0.34-0.22-0.54-0.22"/>
<path class="st0" d="M34.06,14.21c-0.2,0-0.4-0.08-0.54-0.22c-0.14-0.14-0.22-0.34-0.22-0.54s0.08-0.4,0.22-0.54
	c0.14-0.14,0.34-0.22,0.54-0.22"/>
<path class="st0" d="M34.06,14.21c0.2,0,0.4-0.08,0.54-0.22c0.14-0.14,0.22-0.34,0.22-0.54s-0.08-0.4-0.22-0.54
	c-0.14-0.14-0.34-0.22-0.54-0.22"/>
<path class="st0" d="M24.29,10.04c-0.18-0.5-0.5-0.93-0.93-1.24c-0.43-0.31-0.95-0.47-1.48-0.47h-1.98c-0.56,0-1.1,0.21-1.52,0.59
	c-0.42,0.38-0.68,0.89-0.74,1.45c-0.06,0.56,0.09,1.12,0.41,1.57c0.33,0.46,0.81,0.78,1.36,0.9l3.01,0.66
	c0.61,0.14,1.16,0.49,1.52,1.01c0.37,0.51,0.53,1.14,0.46,1.76c-0.07,0.62-0.36,1.2-0.83,1.62c-0.47,0.42-1.07,0.66-1.7,0.66h-1.7
	c-0.53,0-1.04-0.16-1.48-0.47c-0.43-0.31-0.76-0.74-0.93-1.23"/>
<path class="st0" d="M21.03,8.34V5.78"/>
<path class="st0" d="M21.03,21.11v-2.55"/>
<path class="st0" d="M37.89,1.19H4.17c-0.81,0-1.59,0.32-2.17,0.9c-0.57,0.57-0.9,1.35-0.9,2.17v18.39c0,0.81,0.32,1.59,0.9,2.17
	c0.57,0.57,1.35,0.9,2.17,0.9h33.72c0.81,0,1.59-0.32,2.17-0.9c0.57-0.57,0.9-1.35,0.9-2.17V4.25c0-0.81-0.32-1.59-0.9-2.17
	C39.48,1.51,38.7,1.19,37.89,1.19z"/>
</svg>
