<?xml version="1.0" encoding="utf-8"?>
<!-- Generator: Adobe Illustrator 26.0.0, SVG Export Plug-In . SVG Version: 6.00 Build 0)  -->
<svg version="1.1" id="Layer_1" xmlns="http://www.w3.org/2000/svg" xmlns:xlink="http://www.w3.org/1999/xlink" x="0px" y="0px"
	 viewBox="0 0 42 42" style="enable-background:new 0 0 42 42;" xml:space="preserve">
<style type="text/css">
	.st0{fill:none;stroke:#D15E49;stroke-width:3.4286;stroke-linecap:round;stroke-linejoin:round;}
	.st1{fill:none;stroke:#000000;stroke-width:3.4286;stroke-linecap:round;stroke-linejoin:round;}
</style>
<path class="st0" d="M-262.01-373c-11.43,0-20.98,9.57-20.98,20.99c0,4.14,1.23,8.18,3.51,11.62L-283-331l11.79-2.13
	c2.87,1.39,6.01,2.12,9.2,2.11c11.44,0.01,21.01-9.55,21.01-20.98C-241-363.42-250.57-373-262.01-373z"/>
<path class="st0" d="M-260.85-342.75c2.84,1.82,5.8,0.49,7.87-1.05c1.42-1.06,1.38-3.11,0.16-4.41l-2.4-2.55
	c-0.91,0.91-2.68,1.36-3.92,0.98c-2.65-0.81-3.76-2.18-4.66-3.59c-1.03-1.61,0.14-4.02,1.05-4.93l-2.67-2.44
	c-1.13-1.03-2.84-1.2-3.82-0.03c-1.95,2.31-3.15,5.82-1.72,8.05C-268.41-348.71-264.86-345.32-260.85-342.75z"/>
<path class="st1" d="M21.17,2.07c-10.37,0-19.03,8.68-19.03,19.04c0,3.75,1.11,7.42,3.19,10.55l-3.2,8.51l10.7-1.93
	c2.6,1.26,5.46,1.92,8.35,1.92c10.38,0.01,19.06-8.66,19.06-19.03C40.23,10.75,31.55,2.06,21.17,2.07z"/>
<path class="st1" d="M22.22,29.5c2.58,1.65,5.26,0.45,7.13-0.95c1.29-0.96,1.25-2.82,0.15-4l-2.18-2.32
	c-0.82,0.82-2.44,1.23-3.55,0.89c-2.4-0.73-3.41-1.98-4.23-3.26c-0.94-1.46,0.12-3.65,0.95-4.47l-2.43-2.21
	c-1.02-0.93-2.58-1.09-3.47-0.03c-1.77,2.09-2.86,5.28-1.56,7.3C15.37,24.1,18.59,27.17,22.22,29.5z"/>
</svg>
